<svg id="Layer_1" data-name="Layer 1" xmlns="http://www.w3.org/2000/svg" viewBox="0 0 58.97 58.97"><defs><style>.cls-1{fill:#f6a2b6;}.cls-2{fill:#fff;}</style></defs><title>PM</title><circle class="cls-1" cx="29.49" cy="29.49" r="29.49"/><path class="cls-2" d="M72.13,215a19.18,19.18,0,0,1,3.17-.25,5.26,5.26,0,0,1,3.59,1.06A3.44,3.44,0,0,1,80,218.51a3.77,3.77,0,0,1-1,2.74,5.31,5.31,0,0,1-3.91,1.41,5.67,5.67,0,0,1-1.33-.11v5.13H72.13V215Zm1.65,6.17a5.56,5.56,0,0,0,1.37.13c2,0,3.21-1,3.21-2.74s-1.2-2.51-3-2.51a6.92,6.92,0,0,0-1.56.13v5Z" transform="translate(-53.78 -192.44)"/><path class="cls-2" d="M92.8,222c-0.1-1.79-.21-3.93-0.19-5.53H92.55c-0.44,1.5-1,3.1-1.61,4.86l-2.26,6.21H87.42l-2.07-6.1c-0.61-1.8-1.12-3.46-1.48-5h0c0,1.6-.13,3.74-0.25,5.66l-0.34,5.49H81.67l0.89-12.8h2.11l2.18,6.19c0.53,1.58,1,3,1.29,4.31H88.2c0.32-1.29.78-2.7,1.35-4.31l2.28-6.19h2.11l0.8,12.8H93.12Z" transform="translate(-53.78 -192.44)"/></svg>